<svg width="101" height="102" viewBox="0 0 101 102" fill="none" xmlns="http://www.w3.org/2000/svg">
    <circle cx="50.5" cy="50.7495" r="50.5" fill="#0777B6" fill-opacity="0.37"/>
    <path d="M57.8335 27.0833L59.6013 28.8511L61.369 27.0833L59.6013 25.3156L57.8335 27.0833ZM45.9346 42.5178L59.6013 28.8511L56.0657 25.3156L42.3991 38.9822L45.9346 42.5178ZM59.6013 25.3156L45.9346 11.6489L42.3991 15.1844L56.0657 28.8511L59.6013 25.3156Z" fill="white"/>
    <path d="M71.7126 39.0415C74.345 43.601 75.3994 48.9017 74.7122 54.1216C74.025 59.3414 71.6346 64.1886 67.9118 67.9115C64.189 71.6343 59.3418 74.0247 54.1219 74.7119C48.9021 75.3991 43.6013 74.3447 39.0418 71.7123C34.4823 69.0798 30.9188 65.0165 28.904 60.1523C26.8893 55.2882 26.5358 49.8952 27.8984 44.8097C29.2611 39.7243 32.2637 35.2305 36.4406 32.0255C40.6175 28.8204 45.7353 27.0832 51.0002 27.0832" stroke="white" stroke-width="5" stroke-linecap="round"/>
</svg>
