<svg width="22" height="21" viewBox="0 0 22 21" fill="none" xmlns="http://www.w3.org/2000/svg">
    <path d="M1.92558 20.3935C1.65898 20.3928 1.40353 20.2864 1.21526 20.0977C1.02699 19.9089 0.921264 19.6532 0.921265 19.3866V15.3412C0.921031 15.0744 1.02666 14.8184 1.21495 14.6295C1.40325 14.4405 1.65883 14.334 1.92558 14.3333H5.9534C6.22016 14.334 6.47573 14.4405 6.66403 14.6295C6.85233 14.8184 6.95795 15.0744 6.95772 15.3412V19.3866C6.95772 19.6532 6.85202 19.9091 6.66377 20.098C6.47553 20.2869 6.22008 20.3935 5.9534 20.3944L1.92558 20.3935ZM1.5914 15.3447V19.3901C1.5914 19.4787 1.6266 19.5637 1.68928 19.6264C1.75195 19.6891 1.83695 19.7243 1.92558 19.7243H5.9534C6.04188 19.724 6.12665 19.6887 6.18914 19.6261C6.25162 19.5634 6.28671 19.4786 6.28671 19.3901V15.3447C6.28682 15.3008 6.27829 15.2573 6.2616 15.2167C6.24492 15.1761 6.2204 15.1392 6.18945 15.1081C6.1585 15.077 6.12172 15.0523 6.08122 15.0354C6.04072 15.0185 5.99729 15.0097 5.9534 15.0096H1.92558C1.83687 15.0098 1.75187 15.0452 1.68922 15.1081C1.62658 15.1709 1.5914 15.256 1.5914 15.3447ZM8.29974 18.7147V18.0375H21.0428V18.7147H8.29974ZM8.29974 16.7008V16.0236H21.0428V16.7008H8.29974ZM1.92558 13.3281C1.65883 13.3274 1.40325 13.2209 1.21495 13.032C1.02666 12.843 0.921031 12.587 0.921265 12.3203V8.27928C0.921031 8.01252 1.02666 7.75657 1.21495 7.56762C1.40325 7.37866 1.65883 7.27215 1.92558 7.27145H5.9534C6.22016 7.27215 6.47573 7.37866 6.66403 7.56762C6.85233 7.75657 6.95795 8.01252 6.95772 8.27928V12.3247C6.95772 12.5914 6.85202 12.8472 6.66377 13.0361C6.47553 13.225 6.22008 13.3316 5.9534 13.3325L1.92558 13.3281ZM1.5914 8.27928V12.3247C1.5914 12.4134 1.62658 12.4985 1.68922 12.5613C1.75187 12.6241 1.83687 12.6595 1.92558 12.6598H5.9534C5.99729 12.6596 6.04072 12.6509 6.08122 12.634C6.12172 12.6171 6.1585 12.5924 6.18945 12.5613C6.2204 12.5301 6.24492 12.4932 6.2616 12.4526C6.27829 12.4121 6.28682 12.3686 6.28671 12.3247V8.27928C6.28671 8.1908 6.25162 8.10593 6.18914 8.04329C6.12665 7.98064 6.04188 7.94533 5.9534 7.94509H1.92558C1.83702 7.94533 1.75215 7.98061 1.68953 8.04323C1.62691 8.10585 1.59163 8.19072 1.5914 8.27928ZM8.29974 11.6528V10.9756H21.0428V11.6528H8.29974ZM8.29974 9.63009V8.95293H21.0428V9.63009H8.29974ZM1.92558 6.26273C1.65883 6.26203 1.40325 6.15551 1.21495 5.96656C1.02666 5.7776 0.921031 5.52166 0.921265 5.2549V1.20949C0.922193 0.943497 1.02833 0.688675 1.2165 0.50067C1.40467 0.312664 1.65959 0.20675 1.92558 0.206055L5.9534 0.206055C6.22016 0.206754 6.47573 0.313272 6.66403 0.502227C6.85233 0.691182 6.95795 0.947132 6.95772 1.21389V5.2593C6.95656 5.52522 6.85035 5.77991 6.66223 5.96786C6.47411 6.15582 6.21932 6.26181 5.9534 6.26273H1.92558ZM1.5914 1.21389V5.2593C1.5914 5.34801 1.62658 5.4331 1.68922 5.49591C1.75187 5.55872 1.83687 5.59413 1.92558 5.59436H5.9534C5.99758 5.59413 6.04129 5.58515 6.08198 5.56792C6.12266 5.55069 6.15953 5.52557 6.19045 5.494C6.22136 5.46243 6.24571 5.42504 6.26208 5.384C6.27845 5.34296 6.28652 5.29908 6.28583 5.2549V1.20949C6.2849 1.12177 6.24953 1.03794 6.18734 0.976074C6.12514 0.91421 6.04112 0.87928 5.9534 0.878823H1.92558C1.83687 0.879056 1.75187 0.91446 1.68922 0.977272C1.62658 1.04008 1.5914 1.12518 1.5914 1.21389ZM8.29974 4.58125V3.90408H21.0428V4.58125H8.29974ZM8.29974 2.56734V1.89018H21.0428V2.56734H8.29974Z" fill="#878787"/>
</svg>
