<svg width="92" height="82" viewBox="0 0 92 82" fill="none" xmlns="http://www.w3.org/2000/svg">
    <circle cx="35" cy="22" r="22" fill="#008ECC"/>
    <path d="M74 31L74 57" stroke="#008ECC" stroke-width="10" stroke-linecap="round"/>
    <path d="M87 44L61 44" stroke="#008ECC" stroke-width="10" stroke-linecap="round"/>
    <path d="M68.9459 75.2182C69.5143 75.088 69.8526 74.5004 69.6567 73.9513C67.456 67.7817 63.0563 62.3436 57.0583 58.4061C50.7301 54.2518 42.9765 52 35 52C27.0235 52 19.2699 54.2518 12.9417 58.406C6.94374 62.3436 2.54401 67.7817 0.343332 73.9512C0.147441 74.5004 0.48573 75.0879 1.05405 75.2182L26.0622 80.9511C31.9444 82.2995 38.0555 82.2995 43.9378 80.9511L68.9459 75.2182Z" fill="#008ECC"/>
</svg>
