<svg width="21" height="21" viewBox="0 0 21 21" fill="none" xmlns="http://www.w3.org/2000/svg">
    <path d="M12.8568 20.3545C12.5919 20.3538 12.3297 20.3009 12.0852 20.1989C11.8407 20.0968 11.6187 19.9477 11.4318 19.7598C11.245 19.572 11.0969 19.3492 10.9962 19.1042C10.8955 18.8592 10.844 18.5967 10.8447 18.3317V12.9522C10.8444 12.4179 11.0561 11.9054 11.4334 11.527C11.8106 11.1486 12.3225 10.9353 12.8568 10.9339H18.2214C18.7555 10.9356 19.2672 11.149 19.6442 11.5273C20.0213 11.9057 20.2329 12.4181 20.2326 12.9522V18.3361C20.234 18.871 20.023 19.3846 19.6458 19.7639C19.2686 20.1432 18.7563 20.3572 18.2214 20.3588L12.8568 20.3545ZM11.5157 12.9514V18.3361C11.5154 18.6923 11.6565 19.034 11.908 19.2863C12.1594 19.5386 12.5006 19.6808 12.8568 19.6817H18.2214C18.5775 19.6808 18.9188 19.5386 19.1702 19.2863C19.4217 19.034 19.5627 18.6923 19.5625 18.3361V12.9522C19.5627 12.5961 19.4217 12.2544 19.1702 12.0021C18.9188 11.7498 18.5775 11.6076 18.2214 11.6067H12.8568C12.5006 11.6076 12.1594 11.7498 11.908 12.0021C11.6565 12.2544 11.5154 12.5961 11.5157 12.9522V12.9514ZM2.12505 20.3545C1.59091 20.3528 1.07921 20.1394 0.702178 19.7611C0.325143 19.3827 0.113541 18.8703 0.113776 18.3361V12.9522C0.113541 12.4181 0.325143 11.9057 0.702178 11.5273C1.07921 11.149 1.59091 10.9356 2.12505 10.9339H7.48961C8.0239 10.9353 8.53582 11.1486 8.91305 11.527C9.29027 11.9054 9.50199 12.4179 9.50176 12.9522V18.3361C9.50245 18.6011 9.45096 18.8636 9.35021 19.1086C9.24947 19.3536 9.10145 19.5764 8.9146 19.7642C8.72776 19.9521 8.50574 20.1012 8.26124 20.2033C8.01674 20.3053 7.75454 20.3582 7.48961 20.3588L2.12505 20.3545ZM0.783907 12.9522V18.3361C0.783673 18.6923 0.924756 19.034 1.17619 19.2863C1.42763 19.5386 1.76888 19.6808 2.12505 19.6817H7.48961C7.84578 19.6808 8.18703 19.5386 8.43846 19.2863C8.6899 19.034 8.83098 18.6923 8.83075 18.3361V12.9522C8.83098 12.5961 8.6899 12.2544 8.43846 12.0021C8.18703 11.7498 7.84578 11.6076 7.48961 11.6067H2.12505C1.76888 11.6076 1.42763 11.7498 1.17619 12.0021C0.924756 12.2544 0.783673 12.5961 0.783907 12.9522ZM12.8568 9.58839C12.5919 9.5877 12.3297 9.53483 12.0852 9.43281C11.8407 9.33078 11.6187 9.1816 11.4318 8.99377C11.245 8.80595 11.0969 8.58316 10.9962 8.33813C10.8955 8.0931 10.844 7.83062 10.8447 7.56569V2.1897C10.844 1.92476 10.8955 1.66229 10.9962 1.41726C11.0969 1.17223 11.245 0.949437 11.4318 0.761612C11.6187 0.573786 11.8407 0.424602 12.0852 0.322577C12.3297 0.220552 12.5919 0.167684 12.8568 0.166992L18.2214 0.166992C18.4865 0.167453 18.7488 0.220151 18.9935 0.322073C19.2382 0.423995 19.4605 0.573143 19.6475 0.760991C19.8345 0.94884 19.9827 1.17171 20.0836 1.41685C20.1844 1.662 20.236 1.92462 20.2353 2.1897V7.57009C20.2367 8.10499 20.0256 8.61856 19.6484 8.99786C19.2713 9.37717 18.7589 9.59116 18.224 9.59279L12.8568 9.58839ZM11.5157 2.1897V7.57009C11.5154 7.92626 11.6565 8.26797 11.908 8.52023C12.1594 8.77249 12.5006 8.91469 12.8568 8.91562H18.2214C18.5775 8.91469 18.9188 8.77249 19.1702 8.52023C19.4217 8.26797 19.5627 7.92626 19.5625 7.57009V2.1897C19.5639 1.83322 19.4237 1.49078 19.1727 1.23764C18.9217 0.984503 18.5805 0.84139 18.224 0.839761H12.8594C12.6825 0.839875 12.5073 0.874915 12.3439 0.942872C12.1805 1.01083 12.0322 1.11037 11.9073 1.23578C11.7825 1.36119 11.6836 1.51001 11.6164 1.6737C11.5492 1.83739 11.515 2.01274 11.5157 2.1897ZM2.12505 9.58839C1.59091 9.58676 1.07921 9.37337 0.702178 8.99502C0.325143 8.61666 0.113541 8.10423 0.113776 7.57009V2.1897C0.112375 1.65479 0.323461 1.14123 0.700623 0.761922C1.07778 0.382617 1.59014 0.168623 2.12505 0.166992L7.48961 0.166992C7.75454 0.167684 8.01674 0.220552 8.26124 0.322577C8.50574 0.424602 8.72776 0.573786 8.9146 0.761612C9.10145 0.949437 9.24947 1.17223 9.35021 1.41726C9.45096 1.66229 9.50245 1.92476 9.50176 2.1897V7.57009C9.50245 7.83502 9.45096 8.09749 9.35021 8.34253C9.24947 8.58756 9.10145 8.81034 8.9146 8.99817C8.72776 9.186 8.50574 9.33518 8.26124 9.43721C8.01674 9.53923 7.75454 9.5921 7.48961 9.59279L2.12505 9.58839ZM0.783907 2.1897V7.57009C0.783673 7.92626 0.924756 8.26797 1.17619 8.52023C1.42763 8.77249 1.76888 8.91469 2.12505 8.91562H7.48961C7.84578 8.91469 8.18703 8.77249 8.43846 8.52023C8.6899 8.26797 8.83098 7.92626 8.83075 7.57009V2.1897C8.83215 1.83322 8.69195 1.49078 8.44095 1.23764C8.18996 0.984503 7.84872 0.84139 7.49225 0.839761H2.12769C1.95073 0.839875 1.77554 0.874915 1.61216 0.942872C1.44877 1.01083 1.30041 1.11037 1.17557 1.23578C1.05073 1.36119 0.95187 1.51001 0.884661 1.6737C0.817451 1.83739 0.783213 2.01274 0.783907 2.1897Z" fill="#878787"/>
</svg>
